<?xml version="1.0" encoding="iso-8859-1"?>
<!-- Uploaded to: SVG Repo, www.svgrepo.com, Generator: SVG Repo Mixer Tools -->
<svg version="1.1" id="Layer_1" xmlns="http://www.w3.org/2000/svg" xmlns:xlink="http://www.w3.org/1999/xlink" 
	 viewBox="0 0 512 512" xml:space="preserve">
<circle style="fill:#00E4ED;" cx="256" cy="256" r="256"/>
<path style="fill:#00D2DE;" d="M507.106,305.988L357.133,156.015L176.7,274.963l-81.886,49.993l185.854,185.856
	C393.788,499.995,485.412,415.572,507.106,305.988z"/>
<path style="fill:#324A5E;" d="M356.169,292.202c0-7.992-0.964-15.757-2.732-23.207l28.408-16.401l-28.62-49.571l-28.427,16.412
	c-11.247-10.636-24.948-18.696-40.179-23.23v-32.792h-57.241v32.792c-15.231,4.534-28.931,12.593-40.179,23.23l-28.427-16.412
	l-28.617,49.571l28.408,16.401c-1.769,7.451-2.732,15.215-2.732,23.207c0,7.992,0.964,15.756,2.732,23.207l-28.408,16.401
	l28.62,49.571l28.427-16.412c11.247,10.638,24.948,18.696,40.179,23.23v32.792h57.241v-32.792
	c15.231-4.534,28.931-12.593,40.179-23.23l28.427,16.412l28.62-49.571l-28.408-16.401
	C355.206,307.958,356.169,300.194,356.169,292.202z M256,335.132c-23.709,0-42.93-19.22-42.93-42.93
	c0-23.709,19.22-42.93,42.93-42.93c23.709,0,42.93,19.22,42.93,42.93C298.93,315.911,279.709,335.132,256,335.132z"/>
<path style="fill:#2B3B4E;" d="M356.169,292.202c0-7.992-0.964-15.757-2.732-23.207l28.408-16.401l-28.62-49.571l-28.427,16.412
	c-11.247-10.636-24.948-18.696-40.179-23.228v-32.794h-29.074v85.871c0.152-0.002,0.302-0.012,0.453-0.012
	c23.709,0,42.93,19.22,42.93,42.93c0,23.709-19.22,42.93-42.93,42.93c-0.152,0-0.302-0.01-0.453-0.012v85.871h29.074v-32.792
	c15.229-4.534,28.931-12.591,40.179-23.228l28.427,16.412l28.62-49.571l-28.408-16.401
	C355.206,307.958,356.169,300.196,356.169,292.202z"/>
<path style="fill:#FFD15D;" d="M398.22,256c0-78.546-63.676-142.222-142.222-142.222S113.776,177.454,113.776,256v56.889H398.22V256
	z"/>
<g>
	<path style="fill:#F9B54C;" d="M398.22,256c0-78.546-63.676-142.222-142.222-142.222c-0.193,0-0.381,0.014-0.574,0.014v199.097
		H398.22V256z"/>
	<rect x="227.556" y="113.778" style="fill:#F9B54C;" width="56.889" height="142.222"/>
</g>
<rect x="255.431" y="113.778" style="fill:#F4A200;" width="29.018" height="142.222"/>
<rect x="256" y="256" style="fill:#BC732A;" width="142.222" height="28.444"/>
<rect x="113.776" y="256" style="fill:#EDA548;" width="142.222" height="28.444"/>
<rect x="94.813" y="278.411" style="fill:#F9B54C;" width="322.37" height="46.545"/>
<rect x="255.431" y="278.411" style="fill:#F4A200;" width="161.754" height="46.545"/>
<circle style="fill:#FF764C;" cx="256" cy="227.556" r="56.889"/>
<circle style="fill:#FFCE9B;" cx="256" cy="227.556" r="45.684"/>
</svg>